<?xml version="1.0" encoding="UTF-8" standalone="no"?>
<!DOCTYPE svg PUBLIC "-//W3C//DTD SVG 1.1//EN" "http://www.w3.org/Graphics/SVG/1.1/DTD/svg11.dtd">
<svg width="100%" height="100%" viewBox="0 0 224 170" version="1.1" xmlns="http://www.w3.org/2000/svg" xmlns:xlink="http://www.w3.org/1999/xlink" xml:space="preserve" xmlns:serif="http://www.serif.com/" style="fill-rule:evenodd;clip-rule:evenodd;stroke-linejoin:round;stroke-miterlimit:2;">
    <g transform="matrix(1,0,0,1,-3023.44,-165.489)">
        <g transform="matrix(0.627053,0,0,0.59348,1543.41,-97.9243)">
            <g transform="matrix(1.59476,0,0,1.68498,-21167.6,-2623.78)">
                <path d="M14802.4,1915.87C14833.1,1911.03 14850.6,1919.85 14853.9,1943.44C14853.9,1943.44 14853.6,1944.19 14853.4,1944.56C14841.6,1970.2 14817.5,1989.6 14784.8,1989.6C14782.6,1972.81 14776.1,1936.43 14799.3,1918.65C14799.9,1918.19 14800.5,1917.68 14801.1,1917.12C14801.6,1916.73 14802.4,1915.87 14802.4,1915.87Z" style="fill:rgb(42,221,198);"/>
            </g>
            <g transform="matrix(-1.59476,0,0,1.68498,26244.4,-2623.78)">
                <path d="M14802.4,1915.87C14833.1,1911.03 14850.6,1919.85 14853.9,1943.44C14853.9,1943.44 14853.6,1944.19 14853.4,1944.56C14841.6,1970.2 14817.5,1989.6 14784.8,1989.6C14782.6,1972.81 14776.1,1936.43 14799.3,1918.65C14799.9,1918.19 14800.5,1917.68 14801.1,1917.12C14801.6,1916.73 14802.4,1915.87 14802.4,1915.87Z" style="fill:rgb(175,50,221);"/>
            </g>
            <g transform="matrix(1.59476,0,0,1.68498,-21167.6,-2623.78)">
                <path d="M14770.2,1833.34C14849.2,1836.92 14866.9,1911.15 14852.7,1946C14848.3,1929.68 14830.8,1924.52 14813.8,1925.62C14808.1,1926 14800.4,1926.83 14792.1,1925.81C14794.1,1923.2 14796.5,1920.79 14799.3,1918.65C14811.1,1909.55 14829.5,1881.9 14770.2,1833.34Z" style="fill:rgb(36,187,140);"/>
            </g>
            <g transform="matrix(-1.59476,0,0,1.68498,26244.4,-2623.78)">
                <path d="M14770.2,1833.34C14849.2,1836.92 14866.9,1911.15 14852.7,1946C14848.3,1929.68 14830.8,1924.52 14813.8,1925.62C14808.1,1926 14800.4,1926.83 14792.1,1925.81C14794.1,1923.2 14796.5,1920.79 14799.3,1918.65C14811.1,1909.55 14829.5,1881.9 14770.2,1833.34Z" style="fill:rgb(120,9,191);"/>
            </g>
            <g transform="matrix(1.59476,0,0,1.68498,-21167.6,-2623.78)">
                <path d="M14753.6,1820.65C14862.1,1817.55 14874,1909.33 14852.7,1946C14850.6,1929.21 14834,1921.69 14817,1920.43C14796,1918.87 14748.9,1919.81 14753.6,1820.65Z" style="fill:rgb(251,160,47);"/>
            </g>
            <g transform="matrix(-1.59476,0,0,1.68498,26244.4,-2623.78)">
                <path d="M14753.6,1820.65C14862.1,1817.55 14874,1909.33 14852.7,1946C14850.6,1929.21 14834,1921.69 14817,1920.43C14796,1918.87 14748.9,1919.81 14753.6,1820.65Z" style="fill:rgb(248,64,140);"/>
            </g>
        </g>
    </g>
</svg>
